<svg xmlns="http://www.w3.org/2000/svg" viewBox="0 0 800 1000" role="img" aria-label="Illustration of a mango cream torte">
<defs>
  <linearGradient id="body-p5" x1="0" x2="1"><stop offset="0" stop-color="#d4b569"/><stop offset="0.35" stop-color="#f7d787"/><stop offset="1" stop-color="#caac64"/></linearGradient>
  <radialGradient id="light-p5" cx="0.22" cy="0.12" r="0.9"><stop offset="0" stop-color="#ffffff" stop-opacity="0.55"/><stop offset="1" stop-color="#ffffff" stop-opacity="0"/></radialGradient>
  <linearGradient id="table-p5" x1="0" y1="0" x2="0" y2="1"><stop offset="0" stop-color="#ffffff" stop-opacity="0.55"/><stop offset="1" stop-color="#ffffff" stop-opacity="0.25"/></linearGradient>
</defs>
<rect width="800" height="1000" fill="#f1e6cc"/>
<rect y="800" width="800" height="200" fill="#f6efde"/>
<rect y="800" width="800" height="200" fill="url(#table-p5)"/>
<rect width="800" height="1000" fill="url(#light-p5)"/>
<g transform="translate(400 840) scale(1.3) translate(-400 -840)"><ellipse cx="400" cy="866" rx="248" ry="27.599999999999998" fill="#2a201922"/>
<ellipse cx="400" cy="852" rx="244" ry="25.3" fill="#e9e1d8"/>
<ellipse cx="400" cy="844" rx="244" ry="25.3" fill="#fbf8f4"/><g>
  <clipPath id="clip-p5-3"><rect x="170" y="630" width="460" height="244.5" rx="12"/></clipPath>
  <rect x="170" y="630" width="460" height="210" rx="12" fill="url(#body-p5)"/>
  <ellipse cx="400" cy="840" rx="230" ry="34.5" fill="#e2c170" clip-path="url(#clip-p5-3)"/>
  <g clip-path="url(#clip-p5-3)"><rect x="177" y="630" width="22" height="32.2" rx="11" fill="#f9e3ad"/><rect x="215.5" y="630" width="22" height="51" rx="11" fill="#f9e3ad"/><rect x="254.1" y="630" width="22" height="70.4" rx="11" fill="#f9e3ad"/><rect x="292.6" y="630" width="22" height="64.7" rx="11" fill="#f9e3ad"/><rect x="331.2" y="630" width="22" height="41" rx="11" fill="#f9e3ad"/><rect x="369.7" y="630" width="22" height="69.9" rx="11" fill="#f9e3ad"/><rect x="408.3" y="630" width="22" height="56.2" rx="11" fill="#f9e3ad"/><rect x="446.8" y="630" width="22" height="41.3" rx="11" fill="#f9e3ad"/><rect x="485.4" y="630" width="22" height="20" rx="11" fill="#f9e3ad"/><rect x="523.9" y="630" width="22" height="63.2" rx="11" fill="#f9e3ad"/><rect x="562.5" y="630" width="22" height="27.5" rx="11" fill="#f9e3ad"/><rect x="601" y="630" width="22" height="65.5" rx="11" fill="#f9e3ad"/></g>
  
  <ellipse cx="400" cy="630" rx="230" ry="34.5" fill="#f9e3ad"/>
  <ellipse cx="344.8" cy="621.375" rx="92" ry="10.35" fill="#ffffff" opacity="0.35"/>
</g><path d="M302 630 q28 -48 56 0z" fill="#f8c24e" transform="rotate(-12 330 630)"/><path d="M348 630 q28 -48 56 0z" fill="#f4b13a" transform="rotate(-4 376 630)"/><path d="M394 630 q28 -48 56 0z" fill="#f8c24e" transform="rotate(4 422 630)"/><path d="M438 630 q28 -48 56 0z" fill="#f4b13a" transform="rotate(12 466 630)"/><path d="M490 628 q14 -30 -4 -40 q-4 24 4 40z" fill="#4d8a3c"/></g>
</svg>